<?xml version="1.0" standalone="no"?><!DOCTYPE svg PUBLIC "-//W3C//DTD SVG 1.1//EN" "http://www.w3.org/Graphics/SVG/1.1/DTD/svg11.dtd"><svg t="1558947833638" class="icon" style="" viewBox="0 0 1024 1024" version="1.1" xmlns="http://www.w3.org/2000/svg" p-id="7189" xmlns:xlink="http://www.w3.org/1999/xlink" width="128" height="128"><defs><style type="text/css"></style></defs><path d="M505.221 27.034c-0.208 0-0.453 0-0.699 0-270.136 0-489.124 218.988-489.124 489.124 0 270.136 218.988 489.124 489.124 489.124 0.246 0 0.492 0 0.738-0.001 0.17 0 0.415 0.001 0.661 0.001 270.136 0 489.124-218.988 489.124-489.124 0-270.136-218.988-489.124-489.124-489.124-0.246 0-0.492 0-0.738 0.001z" fill="#FFE000" p-id="7190"></path><path d="M505.221 84.087c-0.195 0-0.426 0-0.658 0-238.627 0-432.072 193.445-432.072 432.072 0 238.627 193.445 432.072 432.072 432.072 0.231 0 0.462 0 0.693-0.001 0.158 0 0.39 0.001 0.621 0.001 238.627 0 432.072-193.445 432.072-432.072 0-238.627-193.445-432.072-432.072-432.072-0.231 0-0.462 0-0.693 0.001z" fill="#FFFFFF" p-id="7191"></path><path d="M881.48 537.994h-331.801l233.15 233.15c57.118-62.162 93.501-143.37 98.652-233.149zM881.823 501.166c-3.574-90.762-39.061-173.128-95.74-236.406l-236.405 236.406h332.145zM486.81 475.122v-335.391c-91.136 4.408-173.625 40.98-236.57 98.826l236.57 236.565zM523.638 475.126l236.57-236.57c-62.946-57.851-145.44-94.418-236.57-98.826v335.396zM460.769 501.166l-236.409-236.406c-56.684 63.278-92.17 145.639-95.745 236.406h332.155zM486.809 564.035l-232.984 232.985c62.484 55.972 143.57 91.244 232.986 95.57v-328.554zM460.769 537.995h-331.801c5.15 89.783 41.528 170.992 98.652 233.149l233.15-233.15z" fill="#FFE000" p-id="7192"></path><path d="M523.638 564.035v328.554c89.415-4.326 170.5-39.603 232.985-95.57l-232.985-232.985z" fill="#FFB600" p-id="7193"></path></svg>